<svg xmlns:xlink="http://www.w3.org/1999/xlink" xmlns="http://www.w3.org/2000/svg" viewBox="0 0 24 24" data-at="search_icon" class="css-1gbnjfr eanm77i0" aria-hidden="true" data-comp="Icon StyledComponent " width="24"  height="24" ><path d="M9 0a9 9 0 019 9c0 2.215-.8 4.243-2.127 5.81l7.906 7.909h.002a.752.752 0 010 1.062.752.752 0 01-1.062 0l-7.907-7.909A8.964 8.964 0 019 18a9 9 0 01-9-9 9 9 0 019-9zm0 1.5A7.499 7.499 0 001.5 9c0 4.143 3.357 7.5 7.5 7.5s7.5-3.357 7.5-7.5S13.143 1.5 9 1.5z"></path></svg>